<svg height="25pt" viewBox="0 -55 512 512" width="25pt" xmlns="http://www.w3.org/2000/svg"><path d="m438.03125 401.214844h-364.0625c-40.851562 0-73.96875-33.113282-73.96875-73.964844v-253.28125c0-40.851562 33.117188-73.96875 73.96875-73.96875h364.0625c40.851562 0 73.96875 33.117188 73.96875 73.96875v253.28125c0 40.851562-33.117188 73.964844-73.96875 73.964844zm0 0" fill="#8ed7e8"/><path d="m256 0h-182.03125c-40.851562 0-73.96875 33.117188-73.96875 73.96875v253.28125c0 40.851562 33.117188 73.964844 73.96875 73.964844h182.03125zm0 0" fill="#7ac1dd"/><path d="m438.03125 401.214844h-364.0625c-28.953125 0-54.019531-16.628906-66.164062-40.859375l205.257812-190.90625c24.199219-22.507813 61.675781-22.507813 85.875 0l205.257812 190.90625c-12.148437 24.230469-37.210937 40.859375-66.164062 40.859375zm0 0" fill="#abebf4"/><path d="m181.949219 361.582031c.382812-34.773437 22.515625-65.214843 54.84375-78.019531 31.890625-12.632812 50.542969-43.242188 50.542969-43.242188v-79.425781c-23.460938-13.457031-53.675782-10.605469-74.273438 8.554688l-205.257812 190.90625c12.144531 24.230469 37.210937 40.859375 66.164062 40.859375h112.679688c-3.609376-12.664063-4.84375-26.320313-4.699219-39.632813zm0 0" fill="#8ed7e8"/><path d="m438.03125 0h-364.0625c-28.953125 0-54.015625 16.628906-66.164062 40.859375l205.257812 190.90625c24.199219 22.511719 61.675781 22.511719 85.875 0l205.257812-190.90625c-12.148437-24.230469-37.210937-40.859375-66.164062-40.859375zm0 0" fill="#ccf8ff"/><path d="m123.179688 0h-49.210938c-28.953125 0-54.015625 16.628906-66.164062 40.859375l205.257812 190.910156c17.441406 16.21875 41.777344 20.75 63.066406 13.589844-74.289062-71.019531-138.488281-198.980469-152.949218-245.359375zm0 0" fill="#abebf4"/><g fill="#57565c"><path d="m339.089844 117.769531c-4.265625 0-7.726563-3.457031-7.726563-7.722656v-12.828125c0-4.265625 3.460938-7.726562 7.726563-7.726562 4.269531 0 7.726562 3.460937 7.726562 7.726562v12.828125c0 4.265625-3.457031 7.722656-7.726562 7.722656zm0 0"/><path d="m172.910156 117.769531c-4.269531 0-7.726562-3.457031-7.726562-7.722656v-12.828125c0-4.265625 3.457031-7.726562 7.726562-7.726562 4.265625 0 7.726563 3.460937 7.726563 7.726562v12.828125c0 4.265625-3.460938 7.722656-7.726563 7.722656zm0 0"/><path d="m256 125.863281c-10 0-20-3.238281-28.34375-9.710937-3.371094-2.613282-3.984375-7.46875-1.371094-10.839844 2.613282-3.371094 7.46875-3.984375 10.839844-1.371094 11.113281 8.621094 26.636719 8.621094 37.746094 0 3.371094-2.613281 8.226562-2 10.839844 1.371094 2.617187 3.371094 2.003906 8.226562-1.367188 10.839844-8.34375 6.472656-18.34375 9.710937-28.34375 9.710937zm0 0"/></g></svg>