<svg height="26pt" viewBox="0 -58 511.9994 511" width="26pt" xmlns="http://www.w3.org/2000/svg"><path d="m58.820312 395.207031h394.359376c47.472656 0 75.320312-53.410156 48.140624-92.335937l-191.566406-274.339844c-26.09375-37.371094-81.414062-37.371094-107.511718 0l-191.566407 274.339844c-27.175781 38.925781.671875 92.335937 48.144531 92.335937zm0 0" fill="#ff929f"/><path d="m206.976562 228.3125c64.140626-67.757812 75.371094-167.664062 76.292969-221.929688-27.445312-12.484374-62-5.097656-81.027343 22.148438l-191.566407 274.339844c-27.175781 38.925781.671875 92.335937 48.144531 92.335937h83.875c-.792968-43.289062 9.277344-108.792969 64.28125-166.894531zm0 0" fill="#ff737d"/><path d="m256 259.535156c-17.917969 0-32.578125-14.660156-32.578125-32.578125v-130.722656c0-17.921875 14.660156-32.582031 32.578125-32.582031s32.578125 14.660156 32.578125 32.582031v130.722656c0 17.917969-14.660156 32.578125-32.578125 32.578125zm0 0" fill="#fff"/><path d="m288.167969 321.53125c0 17.765625-14.402344 32.164062-32.167969 32.164062s-32.167969-14.398437-32.167969-32.164062 14.402344-32.167969 32.167969-32.167969 32.167969 14.402344 32.167969 32.167969zm0 0" fill="#fff"/><path d="m277.519531 71.824219c-5.75-5.082031-13.289062-8.171875-21.519531-8.171875-17.917969 0-32.578125 14.664062-32.578125 32.582031v112.550781c31.714844-42.3125 46.984375-93.019531 54.097656-136.960937zm0 0" fill="#ccf8ff"/></svg>