<?xml version="1.0" encoding="iso-8859-1"?>
<!-- Generator: Adobe Illustrator 19.0.0, SVG Export Plug-In . SVG Version: 6.00 Build 0)  -->
<svg version="1.1" id="Capa_1" xmlns="http://www.w3.org/2000/svg" xmlns:xlink="http://www.w3.org/1999/xlink" x="0px" y="0px"
	 viewBox="0 0 512 512" style="enable-background:new 0 0 512 512;" xml:space="preserve" height="30pt">
<path style="fill:#F1C372;" d="M325.643,248.269c-6.282-12.831-21.712-18.32-34.715-12.257l-36.668,17.099l-60.975-22.193
	l8.094-22.238c4.965-13.642-2.069-28.728-15.712-33.694c-13.64-4.963-28.727,2.068-33.694,15.712l-8.094,22.237l-62.837-22.871
	c-10.597-3.856-22.078-3.266-32.247,1.674c-9.866,4.793-17.294,13.483-21.046,23.79l-11.983,32.924
	c-4.965,13.643,2.069,28.728,15.712,33.694c13.641,4.963,28.727-2.068,33.694-15.712l6.27-17.228
	c1.187-3.26,4.791-4.941,8.051-3.755l33.242,12.099c3.26,1.187,4.941,4.791,3.754,8.051l-13.979,38.407
	c-1.384,3.803-4.222,6.9-7.89,8.611l-15.406,7.184c-3.627,1.691-7.777,1.872-11.537,0.504l-32.391-11.79
	c-13.64-4.962-28.728,2.07-33.694,15.712c-4.965,13.643,2.069,28.728,15.712,33.694l47.125,17.152
	c5.409,1.969,11.014,2.948,16.604,2.948c6.979,0,13.932-1.528,20.445-4.565l28.349-13.219l24.065,8.758
	c3.26,1.187,4.941,4.791,3.755,8.051l-9.487,26.064c-4.965,13.643,2.069,28.728,15.712,33.694c2.968,1.08,6.003,1.592,8.989,1.592
	c10.738,0,20.819-6.63,24.705-17.305l15.467-42.496c7.802-21.434-3.289-45.221-24.725-53.025l-8.815-3.208
	c-5.498-2.001-8.333-8.08-6.332-13.578l7.251-19.921c1.187-3.26,4.791-4.941,8.051-3.754l49.418,17.987
	c5.409,1.969,11.014,2.95,16.604,2.948c6.978,0,13.933-1.528,20.444-4.565l37.68-17.57
	C325.967,277.684,332.124,261.505,325.643,248.269z"/>
<path style="opacity:0.15;fill:#8D4330;enable-background:new    ;" d="M197.566,421.095l15.467-42.496
	c2.65-7.281,3.115-14.833,1.741-21.938c-104.555-5.386-59.274-122.214-46.72-151.642l-17.127-11.448l-7.048,19.363l-62.837-22.871
	c-10.597-3.856-22.078-3.266-32.247,1.674c-9.867,4.793-17.294,13.483-21.046,23.79l-11.983,32.925
	c-4.965,13.643,2.069,28.728,15.712,33.694c13.641,4.963,28.727-2.068,33.694-15.712l6.27-17.228
	c1.187-3.26,4.791-4.941,8.051-3.754l33.242,12.099c3.26,1.187,4.941,4.791,3.754,8.051l-13.979,38.407
	c-1.384,3.803-4.222,6.9-7.89,8.611l-15.406,7.184c-3.627,1.691-7.777,1.873-11.537,0.504l-32.391-11.79
	c-13.64-4.962-28.728,2.07-33.694,15.712c-4.965,13.643,2.069,28.728,15.712,33.694l47.125,17.152
	c5.409,1.969,11.014,2.948,16.604,2.948c6.979,0,13.932-1.528,20.445-4.565l28.349-13.219l24.065,8.758
	c3.26,1.186,4.941,4.791,3.754,8.051l-9.486,26.064c-4.965,13.643,2.069,28.728,15.712,33.694c2.968,1.08,6.003,1.592,8.989,1.592
	C183.598,438.4,193.68,431.77,197.566,421.095z"/>
<circle style="fill:#F1C372;" cx="190.83" cy="156.372" r="82.77"/>
<g>
	<ellipse style="fill:#FFFFFF;" cx="165.32" cy="164.702" rx="16.35" ry="13.02"/>
	<ellipse style="fill:#FFFFFF;" cx="253.94" cy="164.702" rx="16.35" ry="13.02"/>
</g>
<g>
	<path style="fill:#495059;" d="M168.054,156.83c-4.143,0-7.5-3.357-7.5-7.5v-7.018c0-4.143,3.357-7.5,7.5-7.5s7.5,3.357,7.5,7.5
		v7.018C175.554,153.473,172.196,156.83,168.054,156.83z"/>
	<ellipse style="fill:#495059;" cx="209.63" cy="154.702" rx="13.182" ry="14.751"/>
	<path style="fill:#495059;" d="M251.21,156.83c-4.143,0-7.5-3.357-7.5-7.5v-7.018c0-4.143,3.357-7.5,7.5-7.5s7.5,3.357,7.5,7.5
		v7.018C258.71,153.473,255.352,156.83,251.21,156.83z"/>
</g>
<path style="fill:#E68392;" d="M504.044,145.215l-74.563-53.913c-10.527-7.612-25.247-0.09-25.247,12.9v9.264
	c0,4.059-3.291,7.35-7.35,7.35h-72.96c-7.147,0-12.941,5.794-12.941,12.941v54.055c0,7.147,5.794,12.941,12.941,12.941h72.96
	c4.059,0,7.35,3.291,7.35,7.35v9.264c0,12.99,14.72,20.512,25.247,12.9l74.563-53.913
	C514.652,168.686,514.652,152.885,504.044,145.215z"/>
<g>
	<path style="opacity:0.1;fill:#8D4330;enable-background:new    ;" d="M190.834,239.141c25.864,0,48.95-11.869,64.128-30.451
		c-88.824,13.747-129.13-73.111-86.984-131.864c-34.591,9.922-59.913,41.766-59.913,79.546
		C108.066,202.084,145.123,239.141,190.834,239.141z"/>
	<path style="opacity:0.15;fill:#8D4330;enable-background:new    ;" d="M369.333,120.817h-45.408
		c-7.147,0-12.941,5.794-12.941,12.941v54.055c0,7.147,5.794,12.941,12.941,12.941h72.96c4.059,0,7.35,3.291,7.35,7.35v9.265
		c0,12.99,14.72,20.512,25.247,12.9l34.158-24.698C418.597,200.854,369.045,160.766,369.333,120.817z"/>
</g>
<g>
</g>
<g>
</g>
<g>
</g>
<g>
</g>
<g>
</g>
<g>
</g>
<g>
</g>
<g>
</g>
<g>
</g>
<g>
</g>
<g>
</g>
<g>
</g>
<g>
</g>
<g>
</g>
<g>
</g>
</svg>
