<?xml version="1.0" encoding="iso-8859-1"?>
<!-- Generator: Adobe Illustrator 16.0.0, SVG Export Plug-In . SVG Version: 6.00 Build 0)  -->
<!DOCTYPE svg PUBLIC "-//W3C//DTD SVG 1.1//EN" "http://www.w3.org/Graphics/SVG/1.1/DTD/svg11.dtd">
<svg version="1.1" id="Capa_1" xmlns="http://www.w3.org/2000/svg" xmlns:xlink="http://www.w3.org/1999/xlink" x="0px" y="0px"
	  height="24px" viewBox="0 0 54.447 54.447" style="enable-background:new 0 0 54.447 54.447;"
	 xml:space="preserve">
<g>
	<g>
		<path d="M30.56,0h-6.667c-0.552,0-1,0.448-1,1v29.736c-4.767,1.791-7.919,6.309-7.919,11.461c0,6.756,5.495,12.25,12.25,12.25
			c6.755,0,12.25-5.494,12.25-12.25c0-5.15-3.15-9.666-7.914-11.459V16.891h2.492c0.553,0,1-0.448,1-1v-3c0-0.552-0.447-1-1-1H31.56
			v-1.192h2.492c0.553,0,1-0.448,1-1v-2h0.74c0.553,0,1-0.448,1-1v-3c0-0.552-0.447-1-1-1H31.56V1C31.56,0.447,31.111,0,30.56,0z
			 M34.794,4.698v1h-0.74c-0.553,0-1,0.448-1,1v2h-2.493c-0.552,0-1,0.448-1,1v3.192c0,0.552,0.448,1,1,1h2.493v1h-2.493
			c-0.552,0-1,0.448-1,1v15.562c0,0.438,0.284,0.824,0.704,0.955c4.312,1.336,7.21,5.271,7.21,9.791
			c0,5.652-4.599,10.25-10.25,10.25c-5.652,0-10.25-4.598-10.25-10.25c0-4.521,2.899-8.457,7.215-9.793
			c0.418-0.129,0.704-0.517,0.704-0.955V2h4.667v1.699c0,0.552,0.448,1,1,1L34.794,4.698L34.794,4.698z"/>
		<path d="M19.432,42.197c0,4.297,3.495,7.793,7.791,7.793c4.296,0,7.792-3.495,7.792-7.793c0-4.297-3.496-7.791-7.792-7.791
			C22.926,34.406,19.432,37.902,19.432,42.197z M33.015,42.197c0,3.193-2.598,5.793-5.792,5.793c-3.193,0-5.791-2.599-5.791-5.793
			c0-3.193,2.598-5.791,5.791-5.791C30.417,36.406,33.015,39.005,33.015,42.197z"/>
	</g>
</g>
<g>
</g>
<g>
</g>
<g>
</g>
<g>
</g>
<g>
</g>
<g>
</g>
<g>
</g>
<g>
</g>
<g>
</g>
<g>
</g>
<g>
</g>
<g>
</g>
<g>
</g>
<g>
</g>
<g>
</g>
</svg>
