<svg height="25pt" viewBox="0 0 512 512" width="25pt" xmlns="http://www.w3.org/2000/svg"><path d="m512 256c0 141.386719-114.613281 256-256 256s-256-114.613281-256-256 114.613281-256 256-256 256 114.613281 256 256zm0 0" fill="#ffffff"/><path d="m256 512c114.507812 0 211.453125-75.164062 244.171875-178.859375-19.777344-116.984375-121.5625-206.105469-244.171875-206.105469s-224.394531 89.125-244.171875 206.105469c32.71875 103.695313 129.664063 178.859375 244.171875 178.859375zm0 0" fill="#ffffff"/><path d="m256 360.144531c-69.71875 0-131.035156 36.019531-166.359375 90.449219 44.742187 38.285156 102.855469 61.40625 166.359375 61.40625s121.613281-23.117188 166.355469-61.402344c-35.324219-54.429687-96.636719-90.453125-166.355469-90.453125zm0 0" fill="#8ed7e8"/><path d="m289.226562 451.335938c28.488282-18.6875 38.335938-49.46875 38.335938-49.46875v-28.40625c-22.199219-8.601563-46.324219-13.316407-71.5625-13.316407-69.71875 0-131.035156 36.019531-166.359375 90.449219 44.742187 38.285156 102.855469 61.40625 166.359375 61.40625 6.625 0 13.195312-.253906 19.691406-.746094-12.042968-19.292968-7.121094-46.367187 13.535156-59.917968zm0 0" fill="#7ac1dd"/><path d="m256 422.4375c-74.582031 0-135.605469-61.023438-135.605469-135.605469v-78.820312c0-74.585938 61.023438-135.609375 135.605469-135.609375s135.605469 61.023437 135.605469 135.609375v78.820312c0 74.582031-61.023438 135.605469-135.605469 135.605469zm0 0" fill="#abebf4"/><path d="m256 72.40625c-74.582031 0-135.605469 61.023438-135.605469 135.605469v78.820312c0 73.558594 59.367188 133.929688 132.554688 135.570313-36.039063-32.308594-48.53125-86.929688-51.894531-134.476563-3.082032-43.535156 11.976562-86.136719 40.765624-118.9375 25.761719-29.355469 38.078126-72.09375 42.914063-93.496093-9.265625-2.023438-18.886719-3.085938-28.734375-3.085938zm0 0" fill="#8ed7e8"/></svg>